<svg xmlns="http://www.w3.org/2000/svg" version="1.1" xmlns:xlink="http://www.w3.org/1999/xlink" xmlns:svgjs="http://svgjs.dev/svgjs" width="2000" height="7159" viewBox="0 0 2000 7159"><g transform="matrix(1,0,0,1,4.9457533601901105,2.898380566801279)"><svg viewBox="0 0 69 247" data-background-color="#000000" preserveAspectRatio="xMidYMid meet" height="7159" width="2000" xmlns="http://www.w3.org/2000/svg" xmlns:xlink="http://www.w3.org/1999/xlink"><g id="tight-bounds" transform="matrix(1,0,0,1,-0.17062849092656052,-0.09999999999999432)"><svg viewBox="0 0 69.34125698185306 247.2" height="247.2" width="69.34125698185306"><g><svg></svg></g><g><svg viewBox="0 0 69.34125698185306 247.2" height="247.2" width="69.34125698185306"><g transform="matrix(1,0,0,1,0,47.215199999999996)"><svg viewBox="0 0 69.34125698185306 152.7696" height="152.7696" width="69.34125698185306"><g><svg viewBox="0 0 69.34125698185306 152.7696" height="152.7696" width="69.34125698185306"><g><svg viewBox="0 0 90.64385304721127 199.70254038090536" height="152.7696" width="69.34125698185306"><g><svg viewBox="0 0 90.64385304721127 199.70254038090536" height="199.70254038090536" width="90.64385304721127"><g id="textblocktransform"><svg viewBox="0 0 90.64385304721127 199.70254038090536" height="199.70254038090536" width="90.64385304721127" id="textblock"><g><svg viewBox="0 0 90.64385304721127 151.825483872" height="151.825483872" width="90.64385304721127"><g transform="matrix(1,0,0,1,0,0)"><svg width="90.64385304721127" viewBox="3.78 -31.95 19.07 31.95" height="151.825483872" data-palette-color="#ffffff"><path d="M7.93-31.95L7.93 0 3.78 0 3.78-31.95 7.93-31.95ZM6 0L6-3.53 22.85-3.53 22.85 0 6 0Z" opacity="1" transform="matrix(1,0,0,1,0,0)" fill="#ffffff" class="wordmark-text-0" data-fill-palette-color="primary" id="text-0"></path></svg></g></svg></g><g transform="matrix(1,0,0,1,0,187.66783680256628)"><svg viewBox="0 0 90.64385304721127 12.034703578339078" height="12.034703578339078" width="90.64385304721127"><g transform="matrix(1,0,0,1,0,0)"><svg width="90.64385304721127" viewBox="2 -37.7 378.06 50.2" height="12.034703578339078" data-palette-color="#b2b7bc"><path d="M23.3-34.1L23.3-34.1 22.7-31.25Q18.85-32.1 16.15-32.1L16.15-32.1Q6.45-32.1 6.45-26.2L6.45-26.2Q6.45-23.95 7.88-22.75 9.3-21.55 11.48-20.78 13.65-20 16.15-19.38 18.65-18.75 20.8-17.7L20.8-17.7Q25.85-15.2 25.85-10.05 25.85-4.9 22-2.25L22-2.25Q18.7 0.05 13.3 0.05L13.3 0.05Q6.6 0.05 2-3L2-3 3.3-5.55Q4.65-4.6 7.15-3.78 9.65-2.95 12-2.95L12-2.95Q16.6-2.95 19.25-4.45L19.25-4.45Q22.45-6.3 22.45-9.75L22.45-9.75Q22.45-12.3 21.03-13.73 19.6-15.15 17.43-16.03 15.25-16.9 12.75-17.53 10.25-18.15 8.1-19.1L8.1-19.1Q3.05-21.3 3.05-25.65 3.05-30 6.05-32.55 9.05-35.1 14.55-35.1L14.55-35.1Q18.8-35.1 23.3-34.1ZM30.5-6.4L30.5-6.4Q29.6-8.8 29.6-12L29.6-12Q29.6-18.15 33.05-21.68 36.5-25.2 41.7-25.2L41.7-25.2Q49.85-25.2 52.4-18.6L52.4-18.6Q53.35-16.2 53.35-13L53.35-13Q53.35-6.85 49.9-3.33 46.45 0.2 41.25 0.2L41.25 0.2Q33.1 0.2 30.5-6.4ZM32.85-12.35Q32.85-7.75 35.22-5.23 37.6-2.7 41.35-2.7 45.1-2.7 47.6-5.38 50.1-8.05 50.1-12.65 50.1-17.25 47.75-19.78 45.4-22.3 41.62-22.3 37.85-22.3 35.35-19.63 32.85-16.95 32.85-12.35ZM59.19-25L59.19-30.9Q59.19-37.7 66.69-37.7L66.69-37.7Q68.64-37.7 70.14-37.3L70.14-37.3 69.64-34.5Q67.94-34.75 66.77-34.75 65.59-34.75 64.64-34.35L64.64-34.35Q62.44-33.35 62.44-29.75L62.44-29.75 62.44-25 68.64-25 68.64-22.1 62.44-22.1 62.44 0 59.19 0 59.19-22.1 56.39-22.1 56.84-25 59.19-25ZM83.09-3.6L83.69-0.9Q82.79 0 80.44 0L80.44 0Q77.14 0 75.99-1.7L75.99-1.7Q74.04-3.55 74.04-6.7L74.04-6.7 74.04-22.1 71.24-22.1 71.69-25 74.04-25 74.04-29.95 77.29-30.25 77.29-25 83.09-25 83.09-22.1 77.29-22.1 77.29-5.9Q77.29-3 80.29-3L80.29-3Q81.59-3 83.09-3.6L83.09-3.6ZM109.59 0L103.69-20.1 96.99 0 93.99 0 85.74-25 89.39-25.25 95.74-4.1 102.24-25 105.39-25.25 110.99-4.05 118.34-25 122.19-25.25 112.59 0 109.59 0ZM126.19-19.9L125.29-22.3Q130.74-25 134.84-25.15L134.84-25.15Q138.09-25.15 139.86-24.33 141.64-23.5 142.74-22.03 143.84-20.55 143.84-17.9L143.84-17.9 143.84 0 140.59 0 140.59-1.9Q133.74 0.2 131.79 0.2L131.79 0.2Q131.69 0.2 131.64 0.2L131.64 0.2Q127.14 0.2 125.49-2.55L125.49-2.55Q124.89-3.55 124.81-4.5 124.74-5.45 124.74-6.1L124.74-6.1Q124.74-7.9 126.14-9.33 127.54-10.75 129.49-11.25L129.49-11.25Q132.79-12.1 140.59-12.75L140.59-12.75 140.59-16.8Q140.59-22.25 134.89-22.25L134.89-22.25Q130.89-22.25 126.19-19.9L126.19-19.9ZM127.79-5.7L127.79-5.7Q127.79-2.1 132.74-2.1L132.74-2.1Q136.69-2.1 140.59-3.8L140.59-3.8 140.59-10.95Q132.79-9.85 130.94-9.25L130.94-9.25Q127.79-8.25 127.79-5.7ZM163.19-24.5L161.89-21.5Q161.09-21.95 160.19-21.95 159.28-21.95 159.19-21.9L159.19-21.9Q157.28-21.9 155.36-20.53 153.44-19.15 152.09-17.45L152.09-17.45 152.09 0 148.84 0 148.84-25 152.09-25.25 152.09-19.65Q153.94-22 155.24-22.95L155.24-22.95Q157.64-24.75 159.84-24.85L159.84-24.85Q160.14-24.9 160.94-24.9 161.74-24.9 163.19-24.5L163.19-24.5ZM166.48-12.3L166.48-11.5Q166.48-2.7 174.88-2.7L174.88-2.7Q178.43-2.7 181.38-3.65L181.38-3.65Q182.13-3.9 182.43-4.05L182.43-4.05 183.18-1.4Q181.43-0.35 176.83 0.1L176.83 0.1Q175.53 0.2 174.08 0.2L174.08 0.2Q169.88 0.2 167.08-1.9L167.08-1.9Q163.23-4.75 163.23-11.4 163.23-18.05 166.71-21.63 170.18-25.2 175.13-25.2 180.08-25.2 182.58-22L182.58-22Q184.48-19.45 184.48-15.25L184.48-15.25Q184.48-14.25 184.38-13.15L184.38-13.15 166.53-13.15Q166.48-12.75 166.48-12.3L166.48-12.3ZM175.33-22.1L175.33-22.1Q172.23-22.1 170.03-20.23 167.83-18.35 166.98-15.4L166.98-15.4 181.53-15.4Q181.28-20.95 177.23-21.85L177.23-21.85Q176.33-22.1 175.33-22.1ZM223.43-35L223.18-32 208.63-32 208.63-18.85 222.13-18.85 221.88-15.85 208.63-15.85 208.63-3 224.43-3 224.18 0 205.23 0 205.23-35 223.43-35ZM232.18-25.25L232.18-22.25Q235.93-25 239.28-25.15L239.28-25.15Q242.33-25.15 243.98-24.4 245.63-23.65 246.7-22.28 247.78-20.9 247.78-18.4L247.78-18.4 247.78 0 244.53 0 244.53-17.55Q244.53-19.4 243.73-20.4L243.73-20.4Q242.13-22.25 238.83-22.25L238.83-22.25Q235.68-22.1 232.18-20.2L232.18-20.2 232.18 0 228.93 0 228.93-25 232.18-25.25ZM257.37-9.65L257.37-9.65Q253.67-11.5 253.67-16.6L253.67-16.6Q253.67-20.8 256.57-23 259.47-25.2 263.97-25.2L263.97-25.2Q265.17-25.2 266.92-24.95L266.92-24.95 276.32-25.2 276.22-23.3 270.77-23.3Q273.52-21.25 273.52-17.13 273.52-13 270.77-10.78 268.02-8.55 263.67-8.55L263.67-8.55Q260.87-8.55 259.02-9.05L259.02-9.05Q258.07-8.15 258.07-6.95L258.07-6.95Q258.07-5.25 259.95-4.5 261.82-3.75 264.37-3.4L264.37-3.4Q270.02-2.65 272.52-1.3L272.52-1.3Q276.12 0.7 276.12 4.85 276.12 9 272.17 11L272.17 11Q269.17 12.5 264.92 12.5 260.67 12.5 258.37 11.85L258.37 11.85Q252.32 10.1 252.32 5.35 252.32 0.6 257.67-2.7L257.67-2.7Q255.57-4.25 255.57-6.3 255.57-8.35 257.37-9.65ZM272.87 4.8L272.87 4.8Q272.87 1.55 268.57 0.3L268.57 0.3Q267.37-0.05 264.27-0.55 261.17-1.05 259.42-1.75L259.42-1.75Q255.57 1.45 255.57 4.45L255.57 4.45Q255.57 5.75 255.97 6.6 256.37 7.45 257.37 8.1L257.37 8.1Q259.57 9.6 264.07 9.6L264.07 9.6Q269.97 9.6 272.07 7.1L272.07 7.1Q272.87 6.15 272.87 4.8ZM270.12-17.25L270.12-17.25Q270.12-22.55 263.82-22.55L263.82-22.55Q260.82-22.55 258.87-21.18 256.92-19.8 256.92-16.98 256.92-14.15 258.32-12.68 259.72-11.2 263.05-11.2 266.37-11.2 268.25-12.8 270.12-14.4 270.12-17.25ZM281.02-25L284.27-25.25 284.27 0 281.02 0 281.02-25ZM282.52-31.7Q281.52-31.7 280.99-32.35 280.47-33 280.47-34 280.47-35 281.04-35.63 281.62-36.25 282.62-36.25 283.62-36.25 284.24-35.63 284.87-35 284.87-33.9 284.87-32.8 284.19-32.25 283.52-31.7 282.52-31.7ZM294.12-25.25L294.12-22.25Q297.87-25 301.22-25.15L301.22-25.15Q304.27-25.15 305.92-24.4 307.57-23.65 308.64-22.28 309.72-20.9 309.72-18.4L309.72-18.4 309.72 0 306.47 0 306.47-17.55Q306.47-19.4 305.67-20.4L305.67-20.4Q304.07-22.25 300.77-22.25L300.77-22.25Q297.62-22.1 294.12-20.2L294.12-20.2 294.12 0 290.87 0 290.87-25 294.12-25.25ZM318.71-12.3L318.71-11.5Q318.71-2.7 327.11-2.7L327.11-2.7Q330.66-2.7 333.61-3.65L333.61-3.65Q334.36-3.9 334.66-4.05L334.66-4.05 335.41-1.4Q333.66-0.35 329.06 0.1L329.06 0.1Q327.76 0.2 326.31 0.2L326.31 0.2Q322.11 0.2 319.31-1.9L319.31-1.9Q315.46-4.75 315.46-11.4 315.46-18.05 318.94-21.63 322.41-25.2 327.36-25.2 332.31-25.2 334.81-22L334.81-22Q336.71-19.45 336.71-15.25L336.71-15.25Q336.71-14.25 336.61-13.15L336.61-13.15 318.76-13.15Q318.71-12.75 318.71-12.3L318.71-12.3ZM327.56-22.1L327.56-22.1Q324.46-22.1 322.26-20.23 320.06-18.35 319.21-15.4L319.21-15.4 333.76-15.4Q333.51-20.95 329.46-21.85L329.46-21.85Q328.56-22.1 327.56-22.1ZM343.41-12.3L343.41-11.5Q343.41-2.7 351.81-2.7L351.81-2.7Q355.36-2.7 358.31-3.65L358.31-3.65Q359.06-3.9 359.36-4.05L359.36-4.05 360.11-1.4Q358.36-0.35 353.76 0.1L353.76 0.1Q352.46 0.2 351.01 0.2L351.01 0.2Q346.81 0.2 344.01-1.9L344.01-1.9Q340.16-4.75 340.16-11.4 340.16-18.05 343.64-21.63 347.11-25.2 352.06-25.2 357.01-25.2 359.51-22L359.51-22Q361.41-19.45 361.41-15.25L361.41-15.25Q361.41-14.25 361.31-13.15L361.31-13.15 343.46-13.15Q343.41-12.75 343.41-12.3L343.41-12.3ZM352.26-22.1L352.26-22.1Q349.16-22.1 346.96-20.23 344.76-18.35 343.91-15.4L343.91-15.4 358.46-15.4Q358.21-20.95 354.16-21.85L354.16-21.85Q353.26-22.1 352.26-22.1ZM380.06-24.5L378.76-21.5Q377.96-21.95 377.06-21.95 376.16-21.95 376.06-21.9L376.06-21.9Q374.16-21.9 372.23-20.53 370.31-19.15 368.96-17.45L368.96-17.45 368.96 0 365.71 0 365.71-25 368.96-25.25 368.96-19.65Q370.81-22 372.11-22.95L372.11-22.95Q374.51-24.75 376.71-24.85L376.71-24.85Q377.01-24.9 377.81-24.9 378.61-24.9 380.06-24.5L380.06-24.5Z" opacity="1" transform="matrix(1,0,0,1,0,0)" fill="#b2b7bc" class="slogan-text-1" data-fill-palette-color="secondary" id="text-1"></path></svg></g></svg></g></svg></g></svg></g><g></g></svg></g></svg></g></svg></g><path d="M0 41.215L0 1 69.341 1 69.341 41.215 58.867 41.215 58.867 11.474 10.474 11.474 10.474 41.215 0 41.215M0 205.985L0 246.2 69.341 246.2 69.341 205.985 58.867 205.985 58.867 235.726 10.474 235.726 10.474 205.985 0 205.985" fill="#fdfdfd" stroke="transparent" data-fill-palette-color="tertiary"></path></svg></g><defs></defs></svg><rect width="69.34125698185306" height="247.2" fill="none" stroke="none" visibility="hidden"></rect></g></svg></g></svg>